<?xml version="1.0" standalone="no"?>
<!DOCTYPE svg PUBLIC "-//W3C//DTD SVG 20010904//EN"
 "http://www.w3.org/TR/2001/REC-SVG-20010904/DTD/svg10.dtd">
<svg version="1.0" xmlns="http://www.w3.org/2000/svg"
 width="577.000000pt" height="433.000000pt" viewBox="0 0 577.000000 433.000000"
 preserveAspectRatio="xMidYMid meet">

<g transform="translate(0.000000,433.000000) scale(0.100000,-0.100000)"
fill="#000000" stroke="none">
<path d="M2713 3088 c-81 -45 -126 -131 -153 -301 -21 -126 -35 -184 -56 -226
-7 -14 -9 -32 -5 -44 5 -12 4 -37 -2 -57 -19 -74 -20 -110 -2 -130 10 -11 28
-20 40 -20 13 0 28 -7 35 -15 7 -8 17 -15 23 -15 7 0 7 4 -1 12 -19 19 -14 36
17 69 l29 30 49 -22 c26 -12 59 -25 73 -30 23 -7 22 -7 -10 -8 -19 -1 -51 -10
-70 -20 -19 -11 -46 -25 -60 -31 -45 -22 -3 -22 65 -1 37 12 76 21 86 21 11 0
19 7 19 16 0 14 3 14 15 4 10 -8 32 -11 63 -7 73 8 100 0 112 -37 9 -28 54
-67 77 -66 4 0 0 5 -9 11 -10 5 -18 17 -18 26 0 13 3 13 15 3 8 -7 15 -9 15
-5 0 5 9 0 19 -9 11 -10 25 -15 30 -11 6 3 15 -4 20 -17 8 -19 10 -20 10 -4 1
15 4 16 15 6 8 -6 17 -19 19 -28 3 -9 3 0 2 22 -3 27 2 45 16 59 34 37 18 103
-42 172 -26 30 -38 56 -53 124 -20 91 -21 104 -11 216 8 78 -12 176 -46 231
-27 45 -89 84 -140 90 -143 15 -143 15 -186 -8z m247 -668 c0 -11 -5 -20 -10
-20 -7 0 -7 -6 0 -19 15 -30 14 -31 -36 -31 l-45 0 38 45 c42 49 53 54 53 25z"/>
<path d="M3064 2159 c-11 -18 14 -33 58 -36 23 -2 45 -9 50 -15 5 -8 8 -9 8
-2 0 6 -9 23 -21 38 -15 19 -30 26 -54 26 -19 0 -37 -5 -41 -11z"/>
<path d="M3020 2143 c0 -5 7 -17 15 -27 14 -19 15 -19 15 7 0 17 -5 27 -15 27
-8 0 -15 -3 -15 -7z"/>
<path d="M3098 2063 c6 -2 18 -2 25 0 6 3 1 5 -13 5 -14 0 -19 -2 -12 -5z"/>
<path d="M3147 2059 c7 -7 15 -10 18 -7 3 3 -2 9 -12 12 -14 6 -15 5 -6 -5z"/>
<path d="M3070 2023 c-58 -9 -109 -26 -114 -39 -7 -17 -40 -18 -65 -2 -14 9
-38 6 -111 -11 -51 -12 -105 -28 -121 -36 -38 -20 -69 -63 -69 -96 0 -28 -42
-69 -70 -69 -7 0 -27 -9 -44 -19 -17 -10 -50 -22 -73 -26 -24 -4 -43 -11 -43
-16 0 -5 -14 -6 -31 -2 -27 5 -31 3 -27 -13 2 -14 12 -19 35 -20 45 0 53 -13
14 -20 -40 -8 -47 -20 -21 -34 17 -9 19 -18 14 -59 -4 -39 -2 -50 11 -55 11
-4 16 -1 14 12 -3 30 0 33 21 22 11 -6 17 -16 14 -22 -4 -6 -3 -8 4 -4 6 3 13
2 17 -3 7 -12 -26 -31 -54 -31 -12 0 -21 -7 -21 -15 0 -8 4 -15 9 -15 21 0 67
22 79 37 7 11 16 13 22 7 12 -12 3 -23 -47 -58 -47 -31 -52 -41 -27 -50 24 -9
44 -7 44 4 0 6 -7 10 -17 10 -37 0 0 12 47 16 51 3 52 3 46 -21 -4 -14 -2 -25
3 -25 4 0 9 -12 9 -26 0 -14 -3 -22 -7 -18 -3 5 -27 17 -53 26 -47 17 -118 15
-118 -3 0 -9 29 -13 88 -12 43 1 40 -11 -7 -30 -49 -20 -65 -41 -24 -31 15 4
47 13 71 19 45 14 54 5 27 -25 -12 -14 -12 -19 0 -43 8 -15 10 -25 4 -21 -6 3
-9 -1 -7 -9 2 -8 -11 -30 -27 -48 -17 -19 -34 -42 -38 -51 -5 -15 -1 -16 26
-11 18 3 47 14 65 24 40 23 42 23 42 3 0 -8 -13 -27 -30 -41 -16 -13 -30 -30
-30 -35 0 -6 8 -4 18 4 9 9 26 18 37 20 11 2 25 14 31 26 9 19 12 20 18 7 12
-33 -47 -85 -98 -85 -24 0 -100 -16 -136 -28 -11 -3 -7 -8 12 -15 23 -9 27
-17 33 -73 3 -35 13 -68 21 -75 8 -6 14 -18 14 -26 0 -30 140 6 154 39 4 10 7
9 15 -2 8 -13 22 -15 83 -9 149 15 267 10 368 -15 52 -14 108 -30 124 -36 16
-6 31 -8 34 -5 3 3 11 38 18 78 12 64 35 144 67 231 9 25 12 26 17 11 4 -11 3
-37 -2 -59 -14 -65 -14 -68 3 -78 11 -8 28 -5 61 10 50 22 45 11 67 157 5 39
7 73 3 76 -4 4 -33 14 -64 23 -32 9 -58 19 -58 21 0 8 115 -7 126 -16 14 -12
24 -1 24 28 0 21 -2 22 -21 11 -17 -10 -23 -10 -26 0 -3 6 -11 12 -18 12 -24
0 -65 23 -65 36 0 21 -44 83 -57 79 -6 -2 -55 -7 -109 -11 -78 -6 -99 -4 -108
7 -20 25 -77 61 -105 65 -18 3 -34 -3 -49 -16 -18 -17 -33 -20 -74 -18 -48 3
-51 4 -35 19 9 9 13 19 10 23 -4 3 -1 6 5 6 6 0 9 6 6 14 -4 11 -13 12 -35 6
-17 -5 -29 -5 -29 1 0 5 4 9 8 9 5 0 14 11 21 23 18 34 71 35 99 2 19 -22 20
-25 5 -33 -12 -7 -6 -11 25 -14 23 -2 42 0 42 4 0 5 -6 8 -14 8 -9 0 -12 7 -9
21 4 12 0 25 -7 29 -8 5 -14 17 -15 27 -2 21 -23 90 -36 115 -5 10 -9 24 -9
32 0 8 -7 17 -16 20 -9 3 -14 12 -11 19 3 7 -1 21 -9 32 -11 15 -11 21 -1 28
9 7 9 10 0 14 -16 6 -17 43 -2 43 6 0 13 -9 16 -20 3 -11 16 -23 29 -26 13 -3
24 -13 24 -21 0 -14 9 -27 48 -69 12 -14 22 -27 22 -29 0 -8 46 -52 60 -58 9
-3 10 -6 3 -6 -22 -2 -14 -19 11 -25 13 -3 32 -9 43 -12 15 -5 15 -4 3 5 -8 6
-10 11 -5 11 6 0 11 16 12 35 1 19 -2 33 -5 32 -11 -3 -14 7 -6 27 4 10 2 27
-5 38 -9 15 -9 22 3 33 12 12 17 6 40 -45 24 -53 46 -77 46 -50 0 5 7 7 15 4
14 -6 85 -144 85 -166 0 -6 11 -23 25 -40 14 -16 25 -36 25 -44 0 -8 7 -14 15
-14 19 0 19 -3 -9 56 -13 27 -22 51 -21 52 7 8 47 -11 72 -34 31 -28 48 -27
49 5 1 15 -8 26 -31 36 -17 9 -47 29 -66 45 l-34 29 33 1 c21 0 32 -5 32 -14
0 -9 16 -18 43 -24 23 -5 43 -8 45 -7 1 1 -2 14 -7 28 -7 18 -7 28 1 33 14 9
2 163 -18 209 -10 24 -23 37 -42 41 -15 3 -54 16 -87 29 -33 13 -69 25 -80 27
-14 2 -21 13 -25 38 -4 29 -11 37 -40 47 -36 12 -55 13 -100 6z m-420 -154 c0
-17 -4 -28 -10 -24 -5 3 -10 17 -10 31 0 13 5 24 10 24 6 0 10 -14 10 -31z
m-10 -89 c0 -5 -4 -10 -10 -10 -5 0 -10 5 -10 10 0 6 5 10 10 10 6 0 10 -4 10
-10z m-19 -85 c-8 -36 -9 -37 -10 -10 -1 36 12 87 16 65 2 -9 -1 -33 -6 -55z
m-208 -6 c-8 -8 -16 -8 -30 0 -16 9 -14 10 12 11 21 0 26 -3 18 -11z m181 -80
c-21 -36 -44 -49 -44 -26 0 9 9 18 19 22 11 3 23 15 26 26 4 11 9 18 12 15 3
-3 -3 -20 -13 -37z m106 -100 c0 -15 -4 -19 -16 -15 -9 3 -21 6 -27 6 -13 1
22 30 35 30 4 0 8 -9 8 -21z m-107 -65 c18 -2 46 -7 64 -9 20 -4 33 -1 36 7 5
15 27 -34 27 -62 0 -27 -13 -32 -100 -37 l-77 -5 -6 46 c-7 49 -1 79 15 70 5
-3 24 -8 41 -10z m417 -63 c12 -8 10 -12 -10 -19 -38 -14 -203 -24 -195 -12 3
5 13 10 22 10 9 0 13 6 10 14 -4 11 11 14 76 15 45 1 89 -3 97 -8z"/>
<path d="M3127 1567 c-3 -8 1 -14 9 -14 8 0 14 6 14 14 0 7 -4 13 -9 13 -5 0
-11 -6 -14 -13z"/>
<path d="M3302 1445 c0 -16 2 -22 5 -12 2 9 2 23 0 30 -3 6 -5 -1 -5 -18z"/>
<path d="M3430 1440 c20 -13 43 -13 35 0 -3 6 -16 10 -28 10 -18 0 -19 -2 -7
-10z"/>
<path d="M3360 1393 c0 -5 4 -15 10 -23 11 -18 25 -7 17 15 -6 15 -27 21 -27
8z"/>
<path d="M2353 1243 c-27 -10 -11 -18 38 -19 48 -1 50 0 28 12 -25 14 -45 16
-66 7z"/>
<path d="M2467 1064 c-3 -3 -25 -8 -48 -10 -38 -4 -70 -18 -58 -27 2 -2 28 -1
57 1 38 3 55 9 63 23 9 18 0 27 -14 13z"/>
</g>
</svg>
