<?xml version="1.0" standalone="no"?>
<!DOCTYPE svg PUBLIC "-//W3C//DTD SVG 20010904//EN"
 "http://www.w3.org/TR/2001/REC-SVG-20010904/DTD/svg10.dtd">
<svg version="1.0" xmlns="http://www.w3.org/2000/svg"
 width="800.000000pt" height="480.000000pt" viewBox="0 0 800.000000 480.000000"
 preserveAspectRatio="xMidYMid meet">

<g transform="translate(0.000000,480.000000) scale(0.100000,-0.100000)"
fill="#000000" stroke="none">
<path d="M0 2400 l0 -2400 4000 0 4000 0 0 2400 0 2400 -4000 0 -4000 0 0
-2400z m3993 972 c10 -4 24 -20 32 -36 18 -33 18 -36 6 -36 -5 0 -12 13 -16
29 -4 21 -15 31 -38 39 -18 5 -25 10 -17 10 8 0 23 -3 33 -6z m-85 -88 c4 2 8
-11 9 -30 1 -19 -3 -32 -8 -29 -5 4 -9 17 -9 31 0 13 -5 24 -11 24 -5 0 -7 5
-3 12 6 9 9 9 12 0 2 -7 7 -10 10 -8z m109 -31 c-10 -22 -13 -24 -15 -9 -2 10
2 22 10 27 19 12 19 12 5 -18z m-120 -49 c-13 -13 -38 26 -32 47 7 20 8 20 22
-10 9 -17 13 -34 10 -37z m30 -26 c-3 -8 -6 -5 -6 6 -1 11 2 17 5 13 3 -3 4
-12 1 -19z m46 -13 c-3 -9 -8 -14 -10 -11 -3 3 -2 9 2 15 9 16 15 13 8 -4z
m-139 -40 c5 -22 4 -26 -4 -15 -8 12 -10 11 -10 -7 0 -12 6 -23 13 -26 6 -2 9
-8 5 -12 -21 -22 -38 38 -22 80 8 20 9 18 18 -20z m365 -21 c12 -15 21 -34 21
-43 0 -9 -39 -101 -88 -205 -93 -201 -117 -234 -166 -222 -33 8 -66 44 -66 71
0 12 23 71 51 131 28 60 67 143 86 184 45 97 57 110 104 110 29 0 42 -6 58
-26z m-395 -159 c11 -8 16 -18 13 -22 -4 -3 -16 3 -27 15 -23 25 -15 29 14 7z
m-74 -15 c0 -5 -5 -10 -11 -10 -5 0 -7 5 -4 10 3 6 8 10 11 10 2 0 4 -4 4 -10z
m32 -19 c-9 -2 -20 -8 -24 -14 -4 -6 -9 -9 -12 -6 -3 3 4 16 15 28 17 18 23
20 30 9 6 -9 3 -14 -9 -17z m-52 -16 c0 -8 -4 -15 -10 -15 -5 0 -7 7 -4 15 4
8 8 15 10 15 2 0 4 -7 4 -15z m120 -5 c12 -7 12 -12 0 -35 -8 -15 -16 -21 -18
-15 -3 7 1 16 8 20 15 9 4 30 -16 30 -9 0 -14 -10 -14 -27 -1 -25 -2 -26 -11
-10 -19 32 17 59 51 37z m-164 -143 c-9 -18 -14 -23 -10 -12 15 45 17 68 6 61
-8 -5 -10 -1 -5 10 6 16 8 15 16 -4 8 -17 6 -31 -7 -55z m659 55 c14 -10 35
-49 35 -66 0 -7 -9 -25 -21 -40 -28 -35 -72 -35 -104 0 -25 27 -34 74 -15 74
6 0 10 6 10 14 0 21 72 35 95 18z m-542 -29 c-7 -3 -13 -18 -13 -33 0 -16 -5
-32 -11 -35 -6 -4 -14 -17 -19 -29 l-9 -21 0 21 c-1 12 6 24 14 28 9 3 15 18
15 35 0 16 5 33 10 36 6 4 7 12 4 18 -4 7 -1 6 7 -2 11 -10 11 -15 2 -18z
m-152 -40 c-12 -20 -14 -14 -5 12 4 9 9 14 11 11 3 -2 0 -13 -6 -23z m87 -92
c7 -4 5 -15 -4 -31 l-15 -25 6 28 c6 29 -11 38 -18 10 -3 -12 -5 -9 -6 8 -1
29 9 45 20 28 3 -6 11 -14 17 -18z m-122 -3 c5 -7 3 -8 -6 -3 -10 6 -12 4 -7
-8 13 -33 20 -92 9 -82 -12 12 -24 90 -15 98 9 9 11 9 19 -5z m-54 -111 c-26
-29 -36 -88 -21 -121 12 -27 33 -34 44 -16 3 6 10 10 16 10 5 0 4 -9 -3 -20
-7 -11 -21 -20 -31 -20 -16 0 -18 -6 -13 -47 5 -44 5 -45 -4 -13 -5 19 -7 45
-5 58 4 15 1 22 -10 22 -9 0 -15 9 -15 26 0 14 -4 23 -10 19 -5 -3 -10 -14
-10 -24 0 -10 -9 -30 -21 -45 -11 -14 -18 -26 -14 -26 3 0 0 -6 -7 -14 -7 -8
-14 -13 -15 -12 -2 2 17 43 42 92 24 49 45 94 45 100 0 6 6 17 14 23 8 7 18
27 22 44 7 29 9 30 12 9 2 -14 -5 -33 -16 -45z m128 -13 c-20 -39 -28 -49 -24
-29 4 17 11 32 16 33 4 2 8 10 8 18 0 14 22 45 28 39 2 -1 -11 -29 -28 -61z
m549 34 c32 -33 34 -52 10 -98 l-22 -42 -18 23 c-15 20 -19 21 -19 7 0 -10 -5
-18 -12 -18 -6 0 -8 -3 -5 -7 4 -3 2 -12 -5 -20 -6 -8 -12 -34 -13 -59 -2 -38
0 -42 13 -32 10 8 11 13 3 16 -9 3 -7 11 3 27 9 13 13 32 10 42 -4 14 -3 15 4
4 7 -9 12 -10 16 -2 4 6 2 11 -3 11 -6 0 -11 5 -11 10 0 16 17 11 24 -6 8 -21
-103 -254 -121 -254 -7 0 -13 -4 -13 -10 0 -14 -27 -12 -59 5 -39 20 -46 55
-21 110 11 24 20 49 20 54 0 6 3 11 8 11 4 0 16 21 26 48 44 108 80 173 93
168 8 -3 11 -1 8 4 -21 34 54 41 84 8z m-589 -26 c0 -7 -4 -10 -10 -7 -5 3
-10 16 -10 28 0 18 2 19 10 7 5 -8 10 -21 10 -28z m284 7 c37 -29 37 -89 0
-118 -79 -62 -170 43 -99 114 30 30 64 32 99 4z m-307 -27 c6 -11 8 -25 3 -32
-6 -9 -10 -7 -15 9 -3 11 -11 21 -17 21 -5 0 -8 -6 -5 -14 4 -10 0 -12 -14 -9
-15 4 -16 9 -8 24 12 24 41 24 56 1z m903 -32 c6 -10 10 -30 10 -44 0 -26
-181 -421 -203 -443 -7 -7 -26 -15 -43 -19 -41 -8 -88 30 -87 72 0 29 174 415
201 446 27 32 102 25 122 -12z m-883 -42 c-3 -8 -6 -5 -6 6 -1 11 2 17 5 13 3
-3 4 -12 1 -19z m-127 -93 c-20 -24 -31 -18 -18 10 8 17 15 22 21 16 7 -7 6
-15 -3 -26z m94 17 c-6 -4 -14 -20 -19 -37 -6 -27 -8 -28 -15 -10 -8 21 13 55
34 55 8 0 8 -2 0 -8z m219 -73 c25 -31 21 -59 -23 -156 -49 -104 -64 -123
-102 -123 -41 0 -63 14 -78 49 -11 27 -8 38 30 123 50 111 79 143 124 134 17
-3 39 -16 49 -27z m-396 -46 c0 -32 -2 -43 -4 -25 -3 17 -8 32 -13 32 -5 0 -4
11 2 25 6 14 12 25 13 25 1 0 1 -26 2 -57z m20 15 c-3 -8 -6 -5 -6 6 -1 11 2
17 5 13 3 -3 4 -12 1 -19z m105 -2 c7 4 8 2 4 -5 -9 -13 -26 -5 -25 12 0 9 2
8 6 -1 2 -6 10 -9 15 -6z m-48 -32 c15 4 26 2 26 -4 0 -5 -6 -10 -14 -10 -16
0 -29 -27 -20 -41 3 -5 -2 -9 -10 -9 -9 0 -16 7 -16 15 0 8 -4 15 -9 15 -5 0
-12 8 -15 17 -8 19 15 38 25 21 4 -6 18 -8 33 -4z m-59 -54 c3 -5 1 -10 -4
-10 -6 0 -11 5 -11 10 0 6 2 10 4 10 3 0 8 -4 11 -10z m1210 -15 c39 -38 43
-27 -106 -341 -35 -73 -64 -93 -109 -74 -32 13 -50 37 -50 67 0 25 139 328
162 353 26 28 73 26 103 -5z m-1325 -120 c-7 -9 -15 -13 -17 -11 -7 7 7 26 19
26 6 0 6 -6 -2 -15z m46 -3 c0 -12 -8 -18 -26 -19 -14 0 -18 1 -7 4 9 2 17 11
17 19 0 8 4 14 8 14 4 0 8 -8 8 -18z m603 -11 c28 -26 43 -71 23 -71 -4 0 -12
-15 -19 -32 -38 -109 -59 -148 -91 -165 -30 -16 -35 -16 -60 -3 -49 28 -49 55
-2 164 41 91 75 136 105 136 7 0 27 -13 44 -29z m-559 -24 c0 -16 -18 3 -23
25 -6 22 -5 22 8 4 8 -11 15 -24 15 -29z m-30 -11 c0 -8 -4 -18 -10 -21 -5 -3
-10 3 -10 14 0 12 5 21 10 21 6 0 10 -6 10 -14z m23 -31 c-3 -9 -8 -14 -10
-11 -3 3 -2 9 2 15 9 16 15 13 8 -4z m-26 -31 c-3 -3 -12 -4 -19 -1 -8 3 -5 6
6 6 11 1 17 -2 13 -5z m254 -23 c34 -35 36 -51 10 -105 -11 -23 -49 -106 -86
-186 -37 -80 -75 -153 -84 -163 -40 -41 -131 -7 -131 48 0 18 83 206 172 391
23 49 78 55 119 15z m573 -32 c37 -29 37 -89 0 -118 -15 -12 -35 -21 -45 -21
-81 0 -113 98 -47 144 30 22 60 20 92 -5z m559 -29 c3 -13 -1 -21 -14 -25 -11
-4 -17 -9 -15 -13 2 -4 -2 -13 -9 -19 -11 -10 -15 -9 -20 7 -3 11 -2 28 4 37
6 10 11 12 11 6 0 -7 7 -13 15 -13 13 0 14 4 5 20 -8 16 -8 20 3 20 8 0 17 -9
20 -20z m-83 -34 c-6 -17 -5 -26 3 -30 7 -2 4 -5 -5 -5 -10 -1 -18 1 -18 3 0
11 20 56 25 56 2 0 0 -11 -5 -24z m130 -5 c0 -5 -9 -7 -20 -4 -11 3 -20 7 -20
9 0 2 9 4 20 4 11 0 20 -4 20 -9z m-1570 -5 c0 -2 -11 -6 -25 -8 -13 -3 -22
-1 -19 3 5 9 44 13 44 5z m60 -52 c0 -13 -13 -50 -30 -82 -16 -33 -30 -64 -30
-70 0 -6 -5 -14 -11 -18 -8 -4 -9 0 -4 15 4 12 2 21 -4 21 -6 0 -11 5 -11 11
0 8 5 8 15 -1 13 -10 15 -9 15 10 0 12 11 35 25 52 27 32 33 76 13 98 -11 12
-10 12 5 1 9 -7 17 -24 17 -37z m-53 30 c-3 -3 -12 -4 -19 -1 -8 3 -5 6 6 6
11 1 17 -2 13 -5z m1494 -31 c-12 -20 -14 -14 -5 12 4 9 9 14 11 11 3 -2 0
-13 -6 -23z m40 4 c-10 -9 -11 -8 -5 6 3 10 9 15 12 12 3 -3 0 -11 -7 -18z
m-1594 -29 c-3 -8 -6 -5 -6 6 -1 11 2 17 5 13 3 -3 4 -12 1 -19z m-36 -15
c-12 -20 -14 -14 -5 12 4 9 9 14 11 11 3 -2 0 -13 -6 -23z m1477 -30 c1 -27
-1 -34 -10 -25 -6 6 -8 22 -4 36 9 35 13 33 14 -11z m-1388 7 c0 -5 -9 -10
-20 -10 -11 0 -20 5 -20 10 0 6 9 10 20 10 11 0 20 -4 20 -10z m1430 -102 c0
-5 -7 -2 -16 6 -21 22 -23 21 -61 -20 -29 -32 -33 -34 -33 -15 0 11 6 21 14
21 18 0 27 25 15 37 -7 7 -2 9 15 8 14 -2 26 2 26 7 0 6 9 1 20 -12 11 -13 20
-27 20 -32z m-1558 6 c-4 -23 -6 -24 -14 -10 -11 19 -3 50 11 42 4 -3 6 -17 3
-32z m1803 -10 c46 -30 50 -98 7 -130 -44 -34 -122 3 -122 57 0 71 60 109 115
73z m-224 -47 c-13 -13 -15 1 -4 30 7 17 8 17 11 -1 2 -10 -1 -23 -7 -29z
m-1546 -7 c8 0 15 -7 15 -15 0 -9 6 -12 15 -9 8 4 15 10 15 16 0 5 7 16 15 24
22 22 18 1 -5 -29 -11 -14 -20 -30 -20 -36 0 -6 -4 -11 -10 -11 -5 0 -10 5
-10 11 0 5 -5 7 -11 4 -6 -4 -13 3 -16 16 -6 22 -7 22 -14 3 -5 -14 -8 -8 -8
21 0 32 2 36 10 23 5 -10 17 -18 24 -18z m-58 -37 c-3 -10 -5 -2 -5 17 0 19 2
27 5 18 2 -10 2 -26 0 -35z m1460 -5 c-3 -7 -5 -2 -5 12 0 14 2 19 5 13 2 -7
2 -19 0 -25z m113 -14 c0 -8 -4 -12 -10 -9 -5 3 -10 13 -10 21 0 8 5 12 10 9
6 -3 10 -13 10 -21z"/>
<path d="M4283 2782 c-23 -3 -38 -28 -23 -37 15 -9 60 6 60 20 0 18 -10 22
-37 17z"/>
<path d="M4331 2744 c0 -11 3 -14 6 -6 3 7 2 16 -1 19 -3 4 -6 -2 -5 -13z"/>
<path d="M4250 2700 c-11 -8 -7 -9 15 -4 24 4 27 3 15 -6 -13 -10 -12 -11 3
-6 10 3 24 6 30 6 7 0 6 4 -3 10 -19 12 -41 12 -60 0z"/>
<path d="M4186 2551 c-5 -8 0 -21 14 -35 21 -20 22 -20 12 -1 -5 11 -11 27
-14 35 -3 11 -6 11 -12 1z"/>
<path d="M4146 2525 c-3 -13 -15 -33 -26 -43 -22 -21 -39 -82 -22 -82 30 0 42
14 43 49 0 39 17 91 18 59 1 -10 8 -18 18 -18 14 0 15 2 1 18 -9 9 -13 23 -11
30 3 6 0 12 -5 12 -5 0 -13 -11 -16 -25z"/>
<path d="M4201 2454 c0 -11 3 -14 6 -6 3 7 2 16 -1 19 -3 4 -6 -2 -5 -13z"/>
<path d="M4069 2355 c-6 -54 -5 -74 3 -69 6 4 8 14 5 24 -3 13 0 17 9 13 9 -3
12 -13 8 -27 -3 -14 1 -27 10 -35 13 -11 16 -11 16 2 0 8 -6 18 -12 20 -10 4
-9 8 2 16 13 10 12 14 -6 29 -11 10 -23 24 -27 32 -4 11 -6 10 -8 -5z"/>
<path d="M4040 2344 c0 -8 5 -12 10 -9 6 3 10 10 10 16 0 5 -4 9 -10 9 -5 0
-10 -7 -10 -16z"/>
<path d="M4011 2278 c0 -9 -6 -18 -11 -20 -6 -2 -11 -21 -13 -43 -2 -38 0 -40
29 -43 19 -2 36 3 44 12 13 17 11 18 -30 20 -27 1 -41 33 -20 46 7 4 10 16 7
26 -4 15 -5 16 -6 2z"/>
<path d="M4072 2244 c-7 -8 -10 -19 -6 -26 5 -7 10 -3 16 12 10 28 7 33 -10
14z"/>
<path d="M3897 2013 c-2 -5 -1 -19 4 -33 l7 -25 1 27 c1 14 7 29 14 31 7 3 6
6 -5 6 -9 1 -19 -2 -21 -6z"/>
<path d="M3942 1998 c2 -7 -3 -12 -9 -10 -7 1 -13 -2 -13 -7 0 -5 11 -11 26
-14 21 -4 25 -1 22 16 -2 11 -9 22 -16 25 -7 2 -11 -2 -10 -10z"/>
<path d="M3873 1958 c1 -23 7 -33 20 -34 11 -1 12 0 3 3 -8 2 -17 17 -20 34
-6 28 -6 28 -3 -3z"/>
<path d="M3950 1926 c0 -12 -5 -16 -14 -13 -9 4 -16 -3 -20 -18 -4 -14 -15
-29 -26 -35 -15 -8 -20 -21 -20 -50 0 -59 26 -53 35 8 6 38 9 43 16 27 7 -14
7 -11 3 12 -4 26 -3 32 9 27 10 -3 17 4 21 22 4 14 5 29 1 32 -3 3 -5 -3 -5
-12z"/>
<path d="M3844 1895 c4 -24 16 -30 16 -7 0 12 -4 22 -9 22 -5 0 -8 -7 -7 -15z"/>
<path d="M3805 1801 c0 -22 3 -34 7 -28 4 7 8 20 8 29 0 9 6 18 13 21 6 2 8 8
4 13 -4 5 -12 2 -16 -5 -6 -10 -10 -10 -13 -1 -2 6 -3 -7 -3 -29z"/>
<path d="M3830 1766 c0 -8 4 -17 9 -20 5 -4 7 3 4 14 -6 23 -13 26 -13 6z"/>
</g>
</svg>
