<?xml version="1.0" standalone="no"?>
<!DOCTYPE svg PUBLIC "-//W3C//DTD SVG 20010904//EN"
 "http://www.w3.org/TR/2001/REC-SVG-20010904/DTD/svg10.dtd">
<svg version="1.0" xmlns="http://www.w3.org/2000/svg"
 width="500.000000pt" height="500.000000pt" viewBox="0 0 500.000000 500.000000"
 preserveAspectRatio="xMidYMid meet">

<g transform="translate(0.000000,500.000000) scale(0.100000,-0.100000)"
fill="#000000" stroke="none">
<path d="M2354 4050 c-231 -30 -469 -115 -658 -237 -71 -46 -192 -139 -213
-164 -11 -14 -27 -139 -17 -139 2 0 39 28 82 63 147 120 242 178 398 241 140
56 394 110 394 83 0 -5 7 -3 17 4 14 12 16 12 11 -1 -2 -8 -18 -15 -34 -16
-41 -2 -124 -26 -124 -37 0 -5 -7 -7 -15 -4 -8 4 -17 2 -20 -3 -6 -10 14 -15
48 -12 10 1 15 -3 12 -8 -9 -14 -25 -12 -58 5 -15 8 -25 9 -21 3 5 -8 0 -9
-16 -5 -13 3 -19 2 -14 -3 5 -5 23 -11 39 -13 17 -3 2 -4 -32 -2 -43 2 -62 0
-60 -8 1 -7 -9 -11 -26 -9 -35 4 -57 -13 -50 -38 3 -12 0 -20 -6 -20 -7 0 -9
-5 -6 -11 4 -6 10 -8 13 -5 3 3 14 -2 25 -11 19 -17 20 -17 14 0 -5 14 -3 17
11 13 24 -8 112 20 91 28 -8 4 -29 2 -45 -4 -25 -10 -27 -9 -14 3 12 12 77 25
132 27 4 0 5 7 2 15 -4 8 -1 15 6 15 6 0 9 -4 6 -9 -7 -10 27 -21 67 -21 17 0
26 4 22 10 -4 6 -16 8 -28 4 -12 -3 -19 -3 -15 1 4 4 26 9 49 10 25 2 36 -1
28 -6 -9 -5 -3 -8 18 -6 18 1 33 4 33 7 0 8 304 4 323 -4 10 -5 33 -6 51 -3
19 3 38 2 42 -2 18 -15 93 -34 118 -29 14 3 27 0 29 -6 4 -10 67 -32 121 -43
11 -2 25 -8 31 -13 15 -12 78 7 69 21 -3 6 -13 5 -22 -3 -15 -12 -16 -11 -3 5
11 14 17 15 28 5 13 -10 12 -14 -3 -25 -10 -7 -22 -13 -27 -13 -4 0 -5 -5 -1
-11 3 -6 9 -7 13 -2 3 4 18 14 32 20 23 10 32 8 62 -12 19 -13 37 -31 41 -40
3 -9 10 -14 15 -10 5 3 22 -5 36 -18 l27 -23 -23 -1 c-17 -2 -20 0 -10 6 11 7
9 11 -8 20 -14 8 -21 8 -21 1 0 -5 5 -10 11 -10 5 0 8 -4 4 -9 -7 -12 29 -33
39 -24 3 3 6 -1 6 -9 0 -25 24 -40 40 -25 10 10 12 9 7 -5 -4 -12 -1 -18 9
-18 8 0 12 5 9 10 -10 16 1 11 16 -7 12 -14 12 -16 -1 -9 -8 5 -1 -4 15 -19
17 -14 23 -23 15 -19 -13 7 -13 5 -2 -8 8 -9 19 -15 26 -12 7 3 21 -6 32 -18
19 -23 19 -23 -2 -8 -11 8 1 -5 26 -30 106 -103 227 -308 278 -470 115 -365
63 -809 -134 -1140 -177 -297 -468 -528 -785 -624 -248 -74 -476 -82 -744 -26
-120 25 -170 42 -301 105 -114 54 -140 79 -114 110 6 8 9 19 5 25 -3 5 1 17
10 26 9 9 14 23 11 31 -3 8 1 24 9 36 20 29 20 61 -1 53 -12 -4 -10 1 5 20 17
21 18 30 9 48 -17 32 -21 34 -16 4 7 -35 -5 -36 -20 -2 -9 18 -9 23 -1 18 8
-4 9 1 4 17 -4 17 -3 20 3 10 8 -11 10 -11 15 0 3 9 10 1 17 -18 7 -18 16 -33
22 -33 5 0 2 -10 -6 -22 -18 -26 -20 -38 -6 -38 6 0 10 9 10 19 0 11 4 23 10
26 5 3 15 16 22 28 10 19 9 20 -4 9 -13 -10 -17 -10 -22 3 -4 11 -2 14 6 9 7
-5 9 -2 5 8 -8 21 3 31 17 15 6 -7 10 -10 9 -8 -2 2 2 10 8 17 7 8 7 14 -1 19
-13 8 -13 35 1 35 6 0 9 -7 5 -15 -3 -8 -2 -15 3 -15 16 0 20 44 6 60 -8 9
-15 23 -15 31 -1 9 -4 8 -11 -5 -8 -13 -8 -20 1 -26 9 -5 8 -9 -3 -13 -21 -8
-28 2 -21 32 l5 26 -15 -25 c-8 -14 -12 -28 -10 -31 2 -4 -4 -13 -13 -20 -15
-12 -16 -12 -8 1 5 8 10 20 11 25 5 25 33 78 34 63 0 -27 20 -21 20 6 0 13 7
29 15 36 9 8 15 9 15 2 0 -6 -4 -14 -10 -17 -14 -9 -12 -38 4 -60 19 -27 42
-6 44 40 1 20 4 40 8 46 3 5 0 16 -6 24 -7 9 -8 15 -2 15 14 0 21 -24 16 -52
-4 -17 -2 -16 9 7 10 21 11 32 3 37 -8 5 -7 8 2 8 19 0 99 181 88 199 -4 6 -3
11 2 11 11 0 44 69 37 80 -3 4 2 11 11 14 10 4 13 13 9 26 -4 13 -1 22 9 26 9
3 16 14 16 24 0 11 4 21 10 25 5 3 6 13 3 22 -5 12 -3 14 7 8 9 -5 11 -4 6 3
-4 7 -3 12 3 12 7 0 42 73 47 100 0 3 4 14 9 25 4 11 14 35 21 54 17 40 18 81
3 81 -6 0 -8 -11 -5 -27 3 -16 1 -35 -4 -43 -8 -11 -9 -7 -4 15 4 24 3 27 -6
15 -10 -13 -11 -13 -7 2 3 9 -1 24 -9 35 -10 12 -14 13 -11 3 2 -8 0 -19 -5
-25 -5 -5 -14 -18 -21 -28 -12 -17 -13 -17 -14 3 -1 13 2 18 9 14 8 -5 9 -1 5
10 -4 11 -3 15 4 10 8 -4 9 1 4 16 -5 17 -4 21 6 15 9 -6 11 -3 6 8 -3 10 -2
17 2 17 5 0 11 -7 15 -15 7 -20 23 -19 48 5 12 10 24 17 28 15 9 -5 33 45 26
53 -3 3 4 21 16 40 12 20 16 32 9 28 -10 -7 -11 -3 -5 15 4 13 8 34 9 45 0 13
5 20 13 16 8 -2 10 -11 7 -21 -17 -40 -13 -42 5 -3 25 51 32 118 12 114 -8 -1
-11 2 -7 7 9 15 37 1 31 -16 -3 -8 -1 -11 5 -8 5 4 7 16 3 28 -3 12 -3 19 1
15 9 -9 34 23 40 50 2 9 9 32 14 51 6 19 8 38 4 44 -3 6 -1 7 5 3 12 -7 16 5
13 32 -1 6 3 12 10 12 6 0 9 7 5 15 -3 9 3 23 14 32 24 20 26 38 5 29 -8 -3
-15 -1 -15 4 0 6 7 10 16 10 14 0 15 2 3 17 -11 13 -11 17 -2 20 10 4 10 10 2
24 -8 16 -13 18 -25 8 -8 -6 -14 -16 -14 -21 0 -6 6 -6 14 1 11 10 14 7 12
-14 -1 -26 -28 -45 -35 -24 -2 7 -11 3 -22 -12 -10 -13 -19 -19 -19 -12 0 6 5
15 10 18 6 4 7 11 4 17 -4 7 -2 8 4 4 8 -5 11 0 9 13 -1 11 0 19 3 18 11 -4
37 28 33 40 -3 7 0 13 7 13 6 0 8 -4 5 -10 -3 -5 -2 -10 4 -10 11 0 26 -39 22
-59 -1 -8 2 -10 11 -5 7 4 10 4 6 -1 -4 -4 1 -15 11 -24 10 -9 82 -149 159
-311 142 -299 233 -488 382 -795 45 -93 86 -180 91 -193 11 -28 12 -29 -106
58 -49 37 -117 82 -150 101 -59 35 -60 36 -68 90 -13 94 -36 129 -84 129 -10
0 -56 -16 -103 -35 -46 -19 -99 -35 -118 -35 -38 0 -62 21 -145 128 -56 71
-80 78 -138 39 -98 -64 -117 -283 -28 -316 12 -4 50 0 90 11 38 9 77 15 87 12
14 -5 14 -4 2 4 -12 9 -9 13 13 21 16 6 39 11 52 11 32 0 86 -46 78 -67 -4
-10 -2 -14 4 -10 5 3 32 -17 59 -44 66 -68 74 -72 124 -54 23 8 44 14 48 14
21 -3 30 3 27 19 -3 22 4 34 16 26 6 -4 6 -11 -2 -20 -12 -14 -12 -14 41 -19
8 0 24 -6 35 -13 17 -10 18 -11 3 -12 -10 0 -18 5 -18 10 0 7 -6 7 -20 0 -14
-7 -20 -7 -20 0 0 5 -7 10 -16 10 -9 0 -14 -6 -11 -12 2 -7 10 -12 16 -10 6 1
11 -3 11 -10 0 -9 3 -9 12 0 14 14 32 16 24 3 -7 -11 38 -53 47 -44 4 3 7 1 7
-5 0 -6 10 -14 22 -18 13 -4 29 -14 36 -23 8 -9 11 -11 8 -4 -4 7 1 9 13 6 10
-2 24 -16 30 -30 8 -18 15 -22 24 -15 23 20 58 4 56 -27 0 -12 -2 -11 -9 4 -5
11 -9 16 -9 11 -1 -5 -9 -2 -18 5 -10 7 -2 -4 17 -24 19 -21 40 -35 47 -33 7
3 10 -1 6 -10 -3 -7 0 -14 6 -14 6 0 11 5 11 11 0 5 5 7 10 4 6 -4 8 -11 5
-16 -4 -5 -1 -9 5 -9 6 0 8 -5 4 -12 -5 -7 -2 -9 9 -5 8 3 21 -1 28 -9 10 -12
9 -14 -7 -9 -10 3 -5 -1 11 -9 17 -8 26 -15 22 -16 -4 0 -2 -6 5 -14 9 -10 15
-11 20 -2 6 8 8 8 8 -1 0 -6 9 -10 20 -8 24 5 27 -10 4 -19 -10 -4 -13 -2 -8
6 5 7 3 8 -6 3 -10 -6 -5 -15 17 -34 17 -14 33 -33 36 -41 4 -12 6 -12 6 -1 1
8 8 22 17 32 17 19 11 64 -8 53 -6 -4 -6 -10 1 -17 15 -15 14 -24 -3 -30 -11
-4 -13 -1 -9 11 6 15 5 15 -10 3 -20 -16 -22 -3 -2 22 27 37 17 65 -205 577
-400 921 -579 1319 -605 1346 -35 36 -80 42 -130 18 -28 -13 -41 -34 -93 -147
-57 -123 -246 -551 -462 -1042 -51 -115 -153 -347 -228 -515 -74 -168 -146
-336 -160 -375 -39 -112 -23 -178 78 -314 25 -33 49 -60 53 -60 5 -1 5 4 1 11
-4 7 -3 8 5 4 8 -6 9 -11 2 -20 -8 -10 -5 -18 10 -31 25 -24 46 -27 53 -9 6
16 -5 19 -19 6 -6 -5 -17 -1 -27 9 -14 14 -14 18 -2 23 7 3 13 0 11 -6 -1 -6
4 -13 12 -16 9 -3 11 0 6 8 -6 9 -3 9 14 1 24 -13 25 -15 11 -42 -9 -16 -7
-21 14 -28 13 -6 27 -15 31 -20 3 -6 12 -11 18 -11 7 0 6 4 -3 10 -11 7 -6 9
18 7 17 -2 35 -7 39 -10 3 -4 13 -1 22 6 14 10 14 10 3 -4 -7 -9 -23 -15 -38
-13 -19 2 -23 -1 -15 -10 14 -17 123 -71 136 -67 5 1 14 -4 20 -12 5 -8 21
-17 35 -21 20 -6 22 -5 10 4 -13 10 -13 11 2 6 10 -3 20 -1 22 3 10 15 -6 20
-26 10 -16 -9 -24 -7 -36 5 -15 15 -15 16 1 16 9 0 17 -4 17 -10 0 -5 7 -7 15
-4 14 6 13 8 -2 21 -17 13 -16 13 4 4 12 -6 33 -11 47 -11 14 0 26 -4 26 -10
0 -5 -7 -7 -15 -4 -11 5 -13 2 -9 -10 3 -8 14 -18 24 -21 26 -8 134 5 141 17
8 12 29 2 29 -13 0 -6 -3 -8 -7 -6 -5 3 -26 1 -48 -3 -22 -4 -30 -8 -18 -9 12
0 25 -6 28 -11 4 -7 -3 -8 -22 -4 -15 4 -30 7 -33 6 -49 0 -72 -3 -69 -6 9
-10 89 -23 83 -15 -3 5 2 6 10 3 9 -3 13 -10 10 -15 -3 -5 1 -10 8 -11 7 0 24
-2 38 -4 14 -2 45 -8 69 -14 33 -8 46 -8 51 1 6 8 9 7 13 -2 4 -10 6 -8 6 4 1
15 -7 18 -46 17 -83 0 -103 2 -103 12 0 10 11 9 70 -7 20 -6 22 -5 10 5 -13
10 -12 11 3 6 10 -3 32 -6 48 -6 19 0 29 -5 29 -15 0 -8 5 -15 11 -15 5 0 8
-4 5 -9 -10 -15 238 -28 304 -15 24 5 30 11 27 25 -3 12 0 16 9 12 8 -3 14 -1
14 5 0 12 -29 26 -47 23 -7 -1 -13 3 -13 9 0 5 8 10 18 10 14 0 14 2 3 9 -11
7 -8 9 10 10 34 1 88 8 128 17 25 5 32 4 27 -4 -4 -7 -2 -12 5 -12 10 0 10 -3
2 -11 -6 -6 -17 -8 -23 -4 -18 11 -81 14 -105 5 -13 -5 1 -8 39 -8 76 -1 90
-14 40 -40 -32 -16 -35 -20 -18 -25 44 -14 114 17 127 56 2 6 15 7 33 2 26 -7
27 -8 9 -16 -15 -7 -12 -8 15 -5 53 5 150 38 143 49 -3 5 3 6 16 2 27 -8 27 1
0 16 -17 9 -23 8 -30 -2 -6 -10 -9 -10 -9 -2 0 21 19 24 51 8 25 -13 34 -14
43 -4 6 6 6 9 1 6 -6 -3 -17 -1 -25 4 -10 6 -4 8 20 5 51 -6 81 18 89 74 1 3
13 6 29 6 15 1 21 -1 14 -3 -6 -3 -9 -9 -6 -15 4 -6 -2 -8 -17 -3 -19 5 -21 4
-9 -4 12 -9 13 -11 1 -11 -8 0 -12 -3 -8 -6 3 -4 23 4 44 17 21 13 52 31 68
40 17 9 30 23 30 30 0 8 4 20 8 27 5 6 6 13 3 13 -3 1 -10 3 -16 4 -5 1 -14 3
-20 4 -5 0 -10 6 -10 12 0 5 5 7 10 4 6 -3 10 -2 10 4 0 16 -22 25 -30 11 -6
-9 -9 -9 -15 0 -4 6 -4 14 0 18 6 7 10 8 36 11 5 0 8 5 4 10 -5 9 29 35 47 36
4 0 14 9 22 20 8 11 18 17 22 12 4 -4 2 -7 -6 -7 -10 0 -10 -4 1 -17 12 -14
12 -16 -2 -11 -9 4 -16 1 -16 -8 0 -7 4 -11 8 -8 10 6 61 -41 53 -49 -4 -4
-15 5 -26 18 -11 14 -25 22 -33 18 -8 -3 -15 0 -15 6 0 8 -8 7 -22 -3 -14 -10
-23 -27 -23 -46 -1 -38 3 -38 16 0 11 30 32 39 44 20 3 -5 1 -10 -6 -10 -6 0
-9 -8 -6 -20 3 -11 0 -20 -6 -20 -6 0 -7 -3 -4 -7 4 -3 -1 -12 -11 -19 -16
-12 -16 -13 4 -14 29 0 66 42 58 66 -5 18 -5 18 10 0 11 -13 16 -15 16 -6 0 7
3 10 7 7 10 -10 32 13 27 27 -3 8 2 16 12 20 12 5 15 2 10 -11 -5 -12 -4 -15
3 -8 5 6 11 24 13 40 3 26 7 30 35 30 17 0 31 4 30 10 -1 5 3 9 10 8 7 -2 10
3 7 11 -8 21 14 56 35 56 10 0 24 7 31 15 9 11 9 15 1 15 -9 0 -9 5 0 23 11
22 11 22 -11 -2 -19 -19 -20 -25 -9 -32 10 -6 8 -9 -9 -9 -13 0 -32 10 -42 23
-10 12 -22 18 -27 14 -4 -5 1 -16 12 -25 17 -15 19 -22 10 -49 -6 -18 -14 -35
-18 -40 -5 -4 -5 0 -1 10 5 13 1 17 -16 17 -16 0 -20 -4 -16 -15 3 -9 0 -15
-10 -15 -8 0 -18 -9 -22 -20 -7 -18 -9 -17 -19 10 -6 16 -7 30 -2 30 5 0 9 -5
9 -11 0 -5 5 -7 11 -4 6 4 8 14 5 22 -4 10 -2 13 8 10 8 -3 20 1 26 9 10 11
10 14 1 14 -7 0 -9 5 -6 10 4 7 13 7 26 0 23 -13 26 2 4 20 -11 9 -19 10 -28
1 -10 -8 -14 -7 -14 4 0 8 9 17 19 21 10 3 16 9 14 13 -7 10 26 10 40 0 6 -5
25 1 45 13 27 17 30 23 16 26 -9 2 -15 7 -12 12 3 4 -2 13 -9 19 -11 10 -18 7
-30 -11 -9 -12 -16 -18 -16 -12 0 6 13 23 29 38 28 27 30 28 24 6 -4 -15 -2
-21 5 -17 5 4 17 4 26 1 13 -5 14 -9 5 -20 -6 -8 -9 -15 -5 -15 3 -1 11 -3 16
-4 6 -1 15 -3 21 -4 5 0 7 -6 3 -12 -3 -6 -9 -7 -13 -3 -10 15 -33 16 -28 2 2
-7 10 -12 16 -10 7 1 10 -2 6 -8 -3 -6 -11 -8 -16 -5 -5 4 -9 1 -9 -4 0 -6 4
-11 8 -11 14 0 53 46 45 53 -3 4 -1 7 6 7 8 0 11 7 7 15 -3 8 -1 14 5 12 6 -1
18 9 27 23 16 25 16 25 -5 7 -14 -13 -23 -15 -28 -7 -5 8 -10 8 -20 0 -9 -8
-15 -8 -20 0 -3 5 -1 10 5 10 7 0 10 6 7 13 -2 6 -10 11 -16 9 -7 -1 -10 2 -6
8 3 5 2 10 -4 10 -5 0 -11 -6 -14 -12 -2 -7 -7 -11 -10 -8 -3 3 5 19 19 35 14
17 23 24 19 18 -3 -7 -1 -13 4 -13 6 0 12 6 13 13 0 6 2 17 2 22 3 19 28 57
33 51 3 -3 0 -12 -7 -21 -9 -11 -9 -15 -1 -15 8 0 7 -6 -3 -16 -25 -24 -19
-36 9 -18 13 8 29 12 36 8 8 -5 10 1 7 19 -3 15 0 28 6 30 7 3 5 11 -6 23 -17
18 -18 17 -19 -11 0 -29 -1 -29 -10 -7 -6 17 -5 27 5 38 13 12 16 12 24 -2 7
-13 13 -14 28 -6 17 9 20 7 21 -11 2 -15 0 -18 -6 -8 -6 9 -11 10 -15 2 -6
-10 6 -15 27 -12 11 2 8 -12 -8 -33 -15 -19 -15 -19 -15 2 0 12 -4 22 -10 22
-12 0 -13 -30 -1 -48 12 -20 50 37 47 70 -2 17 1 25 9 22 17 -7 36 45 30 84
-3 21 0 30 6 26 6 -3 9 -15 6 -25 -8 -32 3 -21 19 17 14 34 11 60 -4 39 -4 -6
-16 -12 -26 -13 -17 -3 -18 -1 -7 12 11 13 10 15 -7 11 -11 -2 -23 3 -26 11
-3 8 0 13 7 11 7 -1 11 4 9 11 -1 8 2 11 8 7 6 -3 8 -11 5 -16 -4 -5 0 -9 9
-9 8 0 17 -6 19 -12 4 -10 6 -10 6 0 1 7 6 10 12 6 12 -7 29 12 29 34 0 8 -5
10 -12 6 -7 -4 -3 3 10 15 16 16 21 29 16 43 -4 14 -2 18 5 14 6 -4 12 -1 12
6 1 7 4 29 6 48 7 60 -3 147 -20 157 -6 4 -8 -4 -4 -23 3 -16 4 -23 1 -16 -3
6 -10 10 -15 6 -12 -7 -10 3 6 46 11 28 14 31 14 12 1 -14 10 -26 23 -31 14
-5 17 -10 10 -15 -15 -9 -15 -53 0 -62 6 -4 8 -3 4 4 -3 6 -1 22 5 35 8 18 8
30 0 46 -7 12 -9 27 -5 33 5 8 10 5 15 -8 5 -13 8 -6 8 24 1 24 -3 41 -8 37
-11 -6 -26 33 -17 42 3 4 6 1 6 -6 0 -9 3 -9 13 1 15 15 22 72 8 63 -5 -3 -12
-1 -16 5 -3 5 0 10 8 10 10 0 14 14 14 53 l1 52 -12 -50 c-10 -42 -13 -46 -18
-26 -4 12 -11 20 -16 17 -6 -4 -8 3 -4 16 5 19 7 20 10 5 2 -9 8 -15 13 -12 5
4 6 17 3 30 -3 12 -1 26 5 29 14 9 14 93 1 101 -5 3 -10 11 -10 16 0 6 5 7 10
4 14 -8 1 78 -13 86 -5 4 -7 12 -3 18 8 12 -3 85 -12 77 -3 -3 -12 3 -19 14
-12 17 -12 24 -3 35 10 12 10 15 0 15 -7 0 -10 7 -6 16 4 10 2 13 -6 8 -7 -5
-9 0 -6 14 4 12 3 22 -1 22 -4 0 -7 8 -8 18 -3 49 -98 261 -176 394 -281 478
-765 765 -1317 782 -80 3 -177 1 -216 -4z m53 -147 c-9 -2 -14 -9 -11 -15 4
-7 2 -8 -5 -4 -15 10 -4 26 17 25 15 -1 15 -2 -1 -6z m111 -5 c-17 -10 -91
-10 -84 0 3 5 26 9 51 9 28 0 41 -4 33 -9z m43 -3 c0 -6 -11 -11 -23 -12 -21
-1 -21 -1 1 4 19 4 21 7 10 15 -10 7 -11 9 -1 6 8 -2 13 -8 13 -13z m54 -5
c-3 -5 -11 -10 -16 -10 -6 0 -7 5 -4 10 3 6 11 10 16 10 6 0 7 -4 4 -10z m55
-14 c0 -2 -9 -2 -20 1 -11 3 -20 9 -20 15 0 5 9 4 20 -2 11 -6 20 -12 20 -14z
m70 4 c8 -5 11 -10 6 -10 -5 0 -1 -9 9 -20 10 -12 25 -18 32 -16 8 3 16 -1 19
-9 4 -8 13 -15 21 -15 8 0 12 4 9 9 -3 5 2 12 11 15 15 6 15 8 3 16 -9 6 -10
10 -3 10 18 0 27 -21 12 -31 -10 -6 -6 -11 16 -19 23 -9 26 -13 15 -20 -24
-15 -58 -11 -77 9 -10 10 -35 24 -56 32 -28 10 -36 17 -32 30 4 13 -1 19 -17
22 -19 4 -20 4 -3 5 11 1 27 -3 35 -8z m76 -14 c16 5 16 4 4 -5 -12 -9 -13
-11 -1 -11 8 0 12 -2 9 -5 -9 -9 -58 13 -58 26 0 9 3 9 14 0 7 -6 22 -9 32 -5z
m-576 -20 c0 -2 -7 -7 -16 -10 -8 -3 -12 -2 -9 4 6 10 25 14 25 6z m684 -25
c11 -4 15 -10 10 -13 -5 -2 -20 1 -34 8 -26 14 -8 18 24 5z m36 -15 c0 -8 -10
-18 -22 -22 -13 -4 -26 -11 -29 -17 -4 -5 -13 -7 -20 -4 -9 3 1 11 24 21 20 9
37 21 37 26 0 6 2 10 5 10 3 0 5 -6 5 -14z m30 10 c0 -3 -4 -8 -10 -11 -5 -3
-10 -1 -10 4 0 6 5 11 10 11 6 0 10 -2 10 -4z m-200 -16 c0 -5 -16 -8 -35 -7
-19 1 -30 4 -24 8 15 9 59 8 59 -1z m250 -11 c0 -5 5 -7 12 -3 7 5 8 3 3 -6
-6 -10 -4 -12 9 -7 11 5 15 3 10 -5 -5 -7 -2 -9 9 -5 11 4 18 -1 22 -14 6 -17
9 -18 23 -7 13 11 14 11 7 -1 -6 -11 -4 -13 10 -7 16 6 16 4 4 -10 -9 -11 -15
-12 -17 -5 -3 9 -8 8 -20 -1 -12 -10 -14 -10 -8 0 4 7 2 12 -8 12 -8 0 -18 -5
-21 -11 -5 -6 -13 -3 -22 10 -8 12 -12 25 -9 30 3 5 -1 14 -9 21 -12 10 -19
10 -33 -2 -9 -9 -32 -16 -51 -16 -40 -1 -38 3 14 21 50 18 75 20 75 6z m-853
-5 c-3 -3 -12 -4 -19 -1 -8 3 -5 6 6 6 11 1 17 -2 13 -5z m1223 -236 c0 -12
-3 -18 -7 -14 -10 10 -11 46 -1 40 4 -3 8 -15 8 -26z m-900 -348 c0 -9 -28
-40 -36 -40 -3 0 0 9 6 19 18 35 11 36 -15 1 -14 -19 -25 -29 -25 -23 0 19 43
61 57 56 7 -3 13 -9 13 -13z m-65 -98 c1 -12 -4 -21 -10 -19 -5 2 -9 17 -8 33
2 28 2 28 -7 6 -6 -13 -8 -28 -4 -33 3 -5 -1 -9 -10 -9 -12 0 -12 5 2 41 14
35 17 38 26 22 6 -10 11 -28 11 -41z m55 43 c-6 -8 -8 -20 -4 -26 4 -8 3 -9
-5 -5 -7 4 -15 -2 -20 -16 -8 -20 -9 -18 -9 14 1 21 5 35 9 32 4 -2 10 0 14 6
3 5 11 10 17 10 7 0 6 -5 -2 -15z m-100 -120 c-9 -11 -7 -16 9 -24 11 -6 28
-8 37 -4 16 6 17 5 4 -9 -8 -9 -17 -14 -19 -12 -2 2 -10 -4 -17 -14 -12 -15
-12 -14 -8 8 5 21 4 22 -6 10 -10 -13 -11 -13 -6 2 3 10 1 20 -4 23 -6 4 -10
1 -10 -5 0 -6 -5 -8 -11 -4 -8 5 -8 9 1 14 7 4 10 12 7 17 -3 5 3 10 14 10 16
2 18 -1 9 -12z m-26 -54 c3 -5 1 -23 -5 -40 -9 -25 -8 -34 5 -47 9 -8 14 -20
11 -25 -10 -14 -25 -10 -25 6 0 9 -8 27 -17 42 -16 24 -16 26 1 39 10 7 15 17
11 23 -3 6 -2 11 4 11 5 0 12 -4 15 -9z m-33 -108 c0 -16 0 -41 0 -57 1 -15
-4 -33 -11 -40 -8 -8 -9 -6 -4 8 5 14 4 17 -4 12 -17 -10 -27 23 -12 37 10 9
12 9 7 -4 -3 -9 0 -16 9 -16 10 0 9 8 -6 32 -18 29 -18 31 -2 42 23 16 22 16
23 -14z m-43 -43 c-10 -15 -10 -22 0 -32 6 -6 12 -21 11 -32 0 -20 -1 -20 -9
2 -5 12 -11 22 -14 22 -7 0 2 -40 12 -54 15 -19 22 -46 12 -46 -6 0 -10 6 -10
14 0 8 -7 22 -16 31 -9 8 -13 22 -10 30 3 8 0 15 -7 16 -9 0 -9 2 1 6 6 2 12
16 12 29 0 13 5 24 11 24 5 0 7 5 3 12 -4 7 -3 8 4 4 9 -5 8 -12 0 -26z m-44
-97 c-4 -22 -3 -25 5 -13 9 13 11 13 11 -2 0 -11 -8 -18 -19 -18 -18 0 -19 3
-10 30 14 38 21 39 13 3z m78 5 c-7 -7 -12 -8 -12 -2 0 14 12 26 19 19 2 -3
-1 -11 -7 -17z m1784 -46 c-4 -3 -11 0 -16 8 -15 24 -11 33 6 15 9 -9 13 -19
10 -23z m-9 -34 c-3 -8 -6 -5 -6 6 -1 11 2 17 5 13 3 -3 4 -12 1 -19z m-1870
-30 c-3 -8 -6 -5 -6 6 -1 11 2 17 5 13 3 -3 4 -12 1 -19z m1893 -4 c0 -8 -5
-12 -10 -9 -7 4 -9 -3 -5 -22 l5 -28 -11 29 c-9 22 -9 30 2 37 19 12 19 11 19
-7z m-1907 -75 c4 -16 2 -19 -11 -14 -13 5 -14 3 -5 -6 17 -17 5 -43 -13 -28
-11 9 -11 16 2 40 17 35 20 35 27 8z m1894 -91 c-2 -18 -4 -4 -4 32 0 36 2 50
4 33 2 -18 2 -48 0 -65z m20 10 c-2 -13 -4 -5 -4 17 -1 22 1 32 4 23 2 -10 2
-28 0 -40z m-1957 -14 c0 -18 4 -35 10 -39 10 -6 -3 -49 -22 -73 -9 -11 -16
-8 -35 15 -15 17 -22 21 -19 11 3 -10 4 -18 2 -18 -3 0 -13 -3 -23 -7 -15 -6
-16 -4 -6 9 7 8 10 18 6 21 -3 4 -1 7 5 7 6 0 9 7 5 17 -5 12 -3 14 7 8 10 -6
12 -4 7 8 -3 9 -1 19 4 23 7 4 9 -6 7 -26 -2 -18 2 -35 8 -37 6 -2 9 10 6 31
-2 18 1 36 6 40 6 4 8 -3 5 -16 -4 -20 -3 -20 6 -6 14 21 4 48 -15 41 -8 -3
-14 0 -14 6 0 6 5 11 10 11 6 0 10 7 10 16 0 14 3 14 15 4 8 -7 15 -27 15 -46z
m35 -14 c3 -5 1 -10 -4 -10 -6 0 -11 5 -11 10 0 6 2 10 4 10 3 0 8 -4 11 -10z
m1905 -90 c0 -5 -4 -10 -10 -10 -5 0 -10 5 -10 10 0 6 5 10 10 10 6 0 10 -4
10 -10z m-2000 -25 c-14 -17 -30 -20 -30 -6 0 5 8 12 18 14 9 3 19 5 21 6 2 0
-2 -6 -9 -14z m35 -15 c3 -5 1 -10 -4 -10 -6 0 -11 5 -11 10 0 6 2 10 4 10 3
0 8 -4 11 -10z m-38 -14 c15 5 15 4 3 -5 -13 -9 -12 -11 4 -11 19 0 19 -1 -2
-20 -12 -12 -22 -24 -22 -29 0 -4 -11 -14 -25 -21 -30 -16 -31 -24 -6 -49 17
-17 17 -20 4 -25 -21 -8 -25 -7 -19 3 4 5 3 16 0 25 -6 15 -8 15 -19 -1 -10
-14 -10 -20 -2 -26 8 -6 6 -7 -4 -4 -9 3 -22 0 -28 -6 -8 -8 -11 -8 -11 1 0 7
5 12 11 12 6 0 9 6 6 13 -3 7 1 24 9 38 7 13 13 20 14 16 0 -5 -5 -17 -10 -28
-7 -12 -7 -19 -1 -19 9 0 24 33 25 55 2 19 39 53 52 48 8 -3 14 -1 14 5 0 21
-30 21 -45 -1 -12 -17 -15 -18 -15 -5 0 9 5 20 10 23 6 4 7 11 4 17 -4 6 1 6
14 -1 11 -6 29 -8 39 -5z m2026 -13 c-5 -12 -8 -13 -11 -4 -3 10 -6 10 -12 1
-5 -8 -9 -7 -13 4 -5 12 0 16 18 16 19 0 23 -4 18 -17z m-35 -53 c11 -32 10
-33 -3 -16 -8 11 -15 29 -15 40 0 25 4 19 18 -24z m-2006 -29 c-15 -13 -18
-21 -10 -24 7 -2 9 -8 5 -13 -4 -5 -12 -2 -17 6 -7 11 -3 20 13 32 30 24 38
22 9 -1z m-119 -123 c-5 -25 -3 -30 8 -23 8 5 11 4 6 0 -4 -5 2 -19 14 -31 13
-14 18 -27 13 -36 -5 -7 -9 -19 -10 -26 -2 -8 -5 -17 -9 -20 -8 -9 1 44 11 60
5 8 1 8 -10 -1 -16 -13 -18 -13 -16 0 4 25 0 39 -11 39 -6 0 -8 -8 -4 -19 3
-11 1 -22 -5 -26 -6 -3 -8 -11 -5 -16 4 -5 1 -9 -5 -9 -6 0 -8 11 -5 28 4 22
3 21 -7 -5 -6 -18 -15 -33 -19 -33 -12 0 -11 4 8 45 9 19 21 35 25 35 5 0 8 6
6 13 -2 13 11 57 17 57 3 0 2 -14 -2 -32z m2101 -30 c-2 -4 0 -9 6 -13 5 -3
10 -14 10 -23 -1 -12 -5 -10 -15 8 -20 34 -19 6 1 -31 8 -17 13 -33 10 -37 -3
-3 -6 1 -6 9 0 11 -2 11 -10 -1 -11 -17 -11 -17 -14 62 -3 45 -1 54 9 45 7 -7
11 -15 9 -19z m-2041 -15 c-4 -10 -9 -11 -19 -2 -18 15 -18 15 5 15 11 0 17
-5 14 -13z m2013 -51 c1 -20 4 -48 8 -62 3 -14 3 -18 0 -10 -4 8 -10 17 -14
20 -8 5 -13 47 -11 84 2 32 14 8 17 -32z m-1082 -44 c-9 -14 -23 2 -17 18 4
12 8 13 14 3 4 -7 5 -17 3 -21z m56 -9 c0 -5 6 -9 14 -9 8 0 17 -4 20 -8 3 -5
-12 -6 -32 -3 -23 4 -37 12 -37 21 0 8 -4 21 -9 29 -6 8 1 7 18 -4 14 -10 26
-21 26 -26z m997 14 c-1 -18 3 -27 11 -25 6 1 12 -5 12 -13 0 -14 -32 -17 -45
-4 -5 6 14 69 20 69 2 0 3 -12 2 -27z m-2110 -25 c-3 -7 -5 -2 -5 12 0 14 2
19 5 13 2 -7 2 -19 0 -25z m5 -46 c-3 -10 -1 -13 6 -8 7 4 12 3 12 -3 0 -17
-18 -22 -24 -6 -8 22 -21 18 -36 -10 -7 -14 -15 -23 -17 -21 -5 5 18 48 30 57
16 12 35 6 29 -9z m1198 -6 c0 -11 -19 -15 -25 -6 -3 5 1 10 9 10 9 0 16 -2
16 -4z m-1203 -66 c1 -11 -2 -18 -8 -15 -11 7 -12 35 -1 35 4 0 8 -9 9 -20z
m2028 -39 c-21 -43 -29 -39 -8 4 9 19 18 33 21 31 2 -2 -4 -18 -13 -35z m45
-21 c0 -13 -1 -13 -10 0 -5 8 -10 22 -10 30 0 13 1 13 10 0 5 -8 10 -22 10
-30z m-70 -36 c0 -8 -5 -12 -10 -9 -6 4 -8 11 -5 16 9 14 15 11 15 -7z m60
-10 c0 -14 -4 -23 -10 -19 -5 3 -10 0 -10 -7 0 -10 -2 -10 -9 1 -7 11 -8 29
-2 49 1 1 8 2 16 2 9 0 15 -10 15 -26z m-2144 -24 c0 -25 -2 -28 -15 -18 -9 7
-17 13 -19 14 -3 2 27 34 32 34 1 0 2 -13 2 -30z m2074 0 c6 -11 8 -20 6 -20
-3 0 -10 9 -16 20 -6 11 -8 20 -6 20 3 0 10 -9 16 -20z m-2130 -90 c0 -5 -2
-10 -4 -10 -3 0 -8 5 -11 10 -3 6 -1 10 4 10 6 0 11 -4 11 -10z m-28 -36 c-7
-13 -7 -25 0 -37 6 -12 6 -17 0 -13 -13 8 -21 -35 -11 -60 6 -15 8 -12 8 12 1
19 7 34 17 38 8 3 13 2 9 -3 -3 -5 0 -11 6 -13 6 -2 2 -15 -11 -31 -12 -15
-26 -25 -31 -22 -5 4 -9 -1 -9 -10 0 -9 -4 -13 -10 -10 -5 3 -10 13 -10 21 0
9 5 12 11 8 7 -4 10 -1 7 7 -3 8 -10 13 -16 12 -6 -2 -9 4 -6 12 4 8 11 12 16
9 6 -4 8 2 3 15 -4 13 -2 21 5 21 6 0 9 4 5 9 -6 10 15 64 23 57 2 -3 -1 -13
-6 -22z m24 -133 c-9 -10 -14 -25 -11 -33 7 -17 -19 -43 -35 -33 -5 3 -15 15
-21 27 -9 16 -8 19 2 12 20 -12 52 -13 40 -1 -6 6 -2 16 12 28 28 24 35 24 13
0z m1792 -156 c-3 -3 -9 2 -12 12 -6 14 -5 15 5 6 7 -7 10 -15 7 -18z m-179
-159 c-4 -4 -13 -4 -21 0 -7 5 -22 8 -33 6 l-20 -2 20 9 c11 5 16 10 10 10 -5
1 -4 5 4 10 16 10 52 -19 40 -33z m-1541 -61 c2 -1 -9 -2 -22 -2 -14 0 -23 3
-20 8 7 12 -3 11 -26 -1 -13 -7 -21 -7 -25 0 -3 6 4 10 17 11 l23 0 -24 10
c-18 7 -27 6 -33 -3 -9 -15 -11 -6 -2 16 5 13 13 12 57 -11 29 -14 53 -27 55
-28z m1417 25 c18 -7 19 -8 3 -15 -22 -9 -51 1 -43 15 7 12 13 12 40 0z m53
-12 c-3 -7 -14 -14 -26 -16 -12 -2 -20 -6 -18 -10 2 -4 -14 -7 -35 -8 -22 0
-35 3 -28 6 16 10 -7 24 -23 14 -10 -5 -10 -4 -2 5 9 10 17 9 37 -3 23 -15 26
-15 48 3 27 23 53 27 47 9z m-1414 -37 c7 -10 -52 -37 -61 -28 -3 3 6 9 21 13
14 3 23 10 20 15 -3 5 -1 9 5 9 5 0 12 -4 15 -9z m59 -22 c7 0 1 -4 -11 -10
-26 -10 -46 -3 -36 12 3 6 13 8 21 5 8 -3 20 -6 26 -7z m1146 -15 c10 -9 -35
-3 -49 6 -11 8 -7 9 15 4 17 -4 32 -8 34 -10z m-1214 -4 c-3 -5 -11 -10 -16
-10 -6 0 -7 5 -4 10 3 6 11 10 16 10 6 0 7 -4 4 -10z m88 -2 c-13 -6 -23 -15
-23 -20 0 -12 -38 -10 -46 4 -4 6 -3 8 3 5 6 -4 24 0 39 8 16 8 34 15 39 14 6
0 0 -5 -12 -11z m1097 -10 c11 -7 6 -8 -15 -4 l-30 5 30 -15 c30 -15 8 -14
-29 2 -14 5 -17 4 -12 -4 9 -15 -3 -15 -33 2 l-24 13 29 11 c29 10 57 7 84
-10z m-1035 2 c13 -6 15 -9 5 -9 -8 0 -22 4 -30 9 -18 12 -2 12 25 0z m1120 0
c-3 -6 4 -10 17 -11 22 0 22 -1 3 -8 -11 -5 -21 -5 -23 0 -2 4 -17 5 -34 2
-22 -4 -29 -3 -24 5 4 6 13 9 20 6 8 -3 17 -1 21 5 3 6 11 11 16 11 6 0 7 -4
4 -10z m-1055 -14 c0 -3 -4 -8 -10 -11 -5 -3 -10 -1 -10 4 0 6 5 11 10 11 6 0
10 -2 10 -4z m825 -6 c3 -5 1 -10 -4 -10 -6 0 -11 5 -11 10 0 6 2 10 4 10 3 0
8 -4 11 -10z m-755 -20 c0 -5 -5 -10 -11 -10 -5 0 -7 5 -4 10 3 6 8 10 11 10
2 0 4 -4 4 -10z m670 0 c-8 -5 -22 -10 -30 -10 -13 0 -13 1 0 10 8 5 22 10 30
10 13 0 13 -1 0 -10z m-113 -16 c-3 -3 -12 -4 -19 -1 -8 3 -5 6 6 6 11 1 17
-2 13 -5z m-229 -13 c21 -1 13 -21 -9 -21 -17 0 -19 -3 -10 -13 8 -10 7 -14
-4 -14 -7 0 -13 5 -12 10 2 12 -60 27 -80 20 -7 -3 -39 -2 -71 3 -51 7 -54 8
-27 15 17 4 68 6 115 4 47 -2 91 -4 98 -4z m122 -3 c0 -5 -17 -6 -37 -3 -28 4
-33 3 -18 -4 11 -5 16 -10 10 -11 -5 -2 4 -6 20 -10 l30 -8 -27 -1 c-15 0 -30
4 -34 10 -5 8 -8 8 -13 0 -4 -6 -17 -13 -30 -16 -12 -2 -19 0 -16 6 4 5 10 7
15 4 8 -5 23 11 26 28 1 4 2 9 3 12 2 8 71 2 71 -7z m424 -2 c-10 -8 -21 -12
-24 -10 -5 6 21 24 34 24 6 0 1 -6 -10 -14z m-769 -16 l30 -8 -35 -1 c-19 0
-42 4 -50 9 -12 8 -11 10 5 9 11 -1 34 -5 50 -9z m382 4 c-3 -3 -12 -4 -19 -1
-8 3 -5 6 6 6 11 1 17 -2 13 -5z m-238 -18 c10 -12 9 -14 -6 -11 -10 2 -25 4
-33 4 -13 1 -13 2 0 11 20 13 26 12 39 -4z m481 -16 c0 -5 -3 -10 -7 -11 -5 0
-16 -2 -26 -4 -9 -2 -15 1 -11 6 3 5 10 7 15 4 5 -4 9 -1 9 4 0 6 5 11 10 11
6 0 10 -4 10 -10z m-63 -26 c-3 -3 -12 -4 -19 -1 -8 3 -5 6 6 6 11 1 17 -2 13
-5z"/>
<path d="M2843 3793 c9 -2 23 -2 30 0 6 3 -1 5 -18 5 -16 0 -22 -2 -12 -5z"/>
<path d="M3055 3750 c3 -5 16 -10 28 -9 21 0 21 1 2 9 -28 12 -37 12 -30 0z"/>
<path d="M2162 2398 c-14 -14 -16 -32 -2 -23 6 3 10 1 10 -4 0 -6 -4 -11 -10
-11 -5 0 -10 -4 -10 -10 0 -20 20 -9 26 15 8 33 2 49 -14 33z"/>
<path d="M2072 2230 c-17 -27 -15 -35 4 -16 8 9 14 21 12 26 -2 6 -9 1 -16
-10z"/>
<path d="M3005 1920 c-3 -5 -1 -10 4 -10 6 0 11 5 11 10 0 6 -2 10 -4 10 -3 0
-8 -4 -11 -10z"/>
<path d="M1730 1350 c0 -5 5 -10 11 -10 5 0 7 5 4 10 -3 6 -8 10 -11 10 -2 0
-4 -4 -4 -10z"/>
<path d="M3005 950 c-13 -6 -15 -9 -5 -9 8 0 22 4 30 9 18 12 2 12 -25 0z"/>
<path d="M2338 873 c12 -2 32 -2 45 0 12 2 2 4 -23 4 -25 0 -35 -2 -22 -4z"/>
<path d="M2428 873 c6 -2 18 -2 25 0 6 3 1 5 -13 5 -14 0 -19 -2 -12 -5z"/>
<path d="M1970 3761 c0 -5 5 -13 10 -16 6 -3 10 -2 10 4 0 5 -4 13 -10 16 -5
3 -10 2 -10 -4z"/>
<path d="M2195 3755 l-30 -14 30 6 c17 3 34 10 40 14 14 13 -5 10 -40 -6z"/>
<path d="M1941 3750 c-8 -4 -11 -13 -7 -19 5 -7 1 -9 -9 -5 -16 6 -125 -54
-125 -69 0 -4 -4 -6 -9 -2 -5 3 -18 -6 -29 -20 -11 -13 -22 -22 -25 -19 -3 3
-14 1 -25 -5 -18 -10 -19 -14 -9 -42 10 -27 10 -32 -7 -44 -10 -8 -23 -12 -27
-9 -5 3 -20 -3 -34 -12 -14 -9 -25 -14 -25 -11 0 11 51 57 63 57 7 0 6 -4 -3
-10 -12 -7 -11 -9 6 -8 11 1 21 8 21 14 0 7 -3 13 -6 12 -19 -2 -24 4 -11 12
9 6 10 10 3 10 -7 0 -26 -12 -42 -27 -17 -16 -44 -39 -61 -52 -24 -18 -30 -29
-26 -46 7 -28 -19 -54 -36 -37 -7 7 -29 12 -49 12 -62 0 -100 -67 -64 -114 31
-41 112 -3 117 55 1 14 8 26 15 26 10 0 10 -4 2 -16 -6 -9 5 2 25 23 20 22 36
36 36 31 0 -4 9 0 20 10 12 10 18 25 15 33 -4 10 0 12 10 8 9 -3 13 -2 10 4
-5 9 14 14 37 12 10 -2 29 25 32 44 2 10 9 20 16 22 8 3 10 0 5 -8 -6 -9 -2
-9 16 0 13 7 26 16 29 19 3 4 35 21 72 40 61 30 66 36 63 61 -3 27 0 29 48 21
10 -1 -18 -31 -29 -31 -3 0 -1 7 6 15 8 9 9 15 2 15 -16 0 -25 -21 -14 -32 7
-7 18 -5 34 6 14 9 28 13 31 9 4 -3 7 1 7 11 0 9 -4 14 -10 11 -5 -3 -18 7
-28 24 -12 20 -22 27 -31 21z m-104 -92 c1 -11 8 -25 15 -29 8 -6 9 -9 2 -9
-6 0 -17 7 -24 15 -11 13 -15 13 -21 3 -7 -10 -11 -10 -21 1 -7 8 -8 11 -2 8
6 -4 19 2 29 13 22 24 20 24 22 -2z m-10 -44 c-3 -3 -12 -4 -19 -1 -8 3 -5 6
6 6 11 1 17 -2 13 -5z m-91 -13 c-3 -5 1 -11 9 -14 8 -4 12 -1 9 6 -2 7 4 13
16 14 11 1 20 -1 20 -3 0 -14 -28 -29 -54 -31 -20 -1 -25 2 -15 8 11 7 10 9
-6 9 -17 0 -17 2 -5 10 19 12 33 13 26 1z m-139 -104 c0 -8 -6 -14 -14 -14 -9
0 -10 4 -2 14 6 7 12 13 14 13 1 0 2 -6 2 -13z m23 -32 c0 -8 -4 -15 -10 -15
-5 0 -7 7 -4 15 4 8 8 15 10 15 2 0 4 -7 4 -15z"/>
<path d="M3227 3678 c13 -15 8 -28 -9 -28 -5 0 -6 5 -3 10 3 6 -3 10 -14 10
-12 0 -21 -5 -21 -12 0 -6 3 -9 6 -5 3 3 25 -6 48 -20 22 -15 47 -26 53 -26 7
0 13 -5 13 -10 0 -6 2 -8 5 -5 12 11 -18 54 -53 77 -20 13 -31 18 -25 9z m47
-43 c30 -23 14 -27 -19 -5 -17 11 -23 20 -15 20 8 -1 24 -7 34 -15z"/>
<path d="M1049 3591 c-22 -23 -29 -39 -29 -68 0 -96 124 -115 169 -26 47 93
-65 168 -140 94z"/>
<path d="M1364 3598 c-49 -22 -54 -91 -6 -109 18 -7 31 -6 48 6 62 40 24 132
-42 103z"/>
<path d="M755 3456 c-53 -24 -95 -85 -95 -138 0 -57 62 -118 121 -118 53 0
124 66 135 125 17 92 -78 169 -161 131z"/>
<path d="M1510 3442 c0 -12 19 -26 26 -19 2 2 -2 10 -11 17 -9 8 -15 8 -15 2z"/>
<path d="M2480 3284 c0 -6 7 -19 15 -30 8 -10 14 -14 14 -9 0 6 -6 19 -14 29
-8 11 -15 15 -15 10z"/>
<path d="M2525 3170 c-3 -5 -1 -10 4 -10 6 0 11 5 11 10 0 6 -2 10 -4 10 -3 0
-8 -4 -11 -10z"/>
<path d="M641 3063 c-27 -10 -67 -39 -106 -77 -51 -50 -65 -72 -79 -118 -20
-69 -20 -111 -2 -172 20 -66 57 -110 118 -140 157 -78 353 31 393 219 42 204
-129 357 -324 288z"/>
<path d="M4095 2771 c-3 -5 -2 -12 3 -15 5 -3 9 1 9 9 0 17 -3 19 -12 6z"/>
<path d="M2480 2110 c0 -5 5 -10 11 -10 5 0 7 5 4 10 -3 6 -8 10 -11 10 -2 0
-4 -4 -4 -10z"/>
<path d="M2525 2111 l20 -8 -20 -6 c-14 -3 -12 -4 7 -4 39 2 42 22 4 24 -24 1
-27 0 -11 -6z"/>
<path d="M2570 2089 c0 -5 5 -7 10 -4 6 3 10 8 10 11 0 2 -4 4 -10 4 -5 0 -10
-5 -10 -11z"/>
<path d="M3431 1581 c-15 -10 -11 -43 5 -48 13 -4 25 30 15 45 -4 6 -12 7 -20
3z m13 -26 c-4 -8 -8 -15 -10 -15 -2 0 -4 7 -4 15 0 8 4 15 10 15 5 0 7 -7 4
-15z"/>
<path d="M3856 1525 c-8 -9 -21 -14 -28 -13 -7 2 -13 -4 -13 -12 0 -8 6 -15
14 -15 8 0 17 -9 22 -20 4 -11 8 -15 8 -9 1 6 12 16 26 22 32 15 34 43 3 34
-17 -4 -20 -2 -15 11 8 21 3 21 -17 2z"/>
<path d="M3719 1268 c-12 -23 -12 -23 10 -4 23 21 26 26 11 26 -5 0 -15 -10
-21 -22z"/>
<path d="M3633 1195 c-9 -24 1 -27 15 -5 8 13 8 20 2 20 -6 0 -13 -7 -17 -15z"/>
<path d="M2030 880 c0 -5 12 -10 28 -10 21 0 24 2 12 10 -20 13 -40 13 -40 0z"/>
<path d="M2735 843 c11 -7 26 -13 34 -13 11 0 9 -6 -8 -21 -27 -25 -22 -36 8
-17 12 7 21 22 21 33 0 12 3 16 8 9 5 -8 15 -8 32 -2 30 12 23 15 -54 21 -51
3 -57 2 -41 -10z"/>
<path d="M2948 813 c7 -3 16 -2 19 1 4 3 -2 6 -13 5 -11 0 -14 -3 -6 -6z"/>
</g>
</svg>
